<?xml version="1.0" encoding="UTF-8"?>
<!DOCTYPE svg PUBLIC "-//W3C//DTD SVG 1.1//EN" "http://www.w3.org/Graphics/SVG/1.1/DTD/svg11.dtd">
<!-- Creator: CorelDRAW -->
<svg xmlns="http://www.w3.org/2000/svg" xml:space="preserve" width="210mm" height="100mm" version="1.1" style="shape-rendering:geometricPrecision; text-rendering:geometricPrecision; image-rendering:optimizeQuality; fill-rule:evenodd; clip-rule:evenodd"
viewBox="0 0 21000 10000"
 xmlns:xlink="http://www.w3.org/1999/xlink"
 xmlns:xodm="http://www.corel.com/coreldraw/odm/2003">
 <defs>
  <style type="text/css">
   <![CDATA[
    .fil2 {fill:#E7BB41}
    .fil1 {fill:#5BB748;fill-rule:nonzero}
    .fil0 {fill:url(#id0)}
   ]]>
  </style>
  <linearGradient id="id0" gradientUnits="userSpaceOnUse" x1="1932.36" y1="5003.8" x2="7013.3" y2="5003.8">
   <stop offset="0" style="stop-opacity:1; stop-color:#098B4F"/>
   <stop offset="0.109804" style="stop-opacity:1; stop-color:#32A14C"/>
   <stop offset="1" style="stop-opacity:1; stop-color:#5BB748"/>
  </linearGradient>
 </defs>
 <g id="Layer_x0020_1">
  <metadata id="CorelCorpID_0Corel-Layer"/>
  <g id="_2176987922288">
   <path class="fil0" d="M3407.25 5256.8c21.33,-114.62 255.34,-650.47 319.62,-800.92 76.43,-178.9 62.83,-294.15 272.71,-301.17 142.94,-4.79 411.88,-11.03 545.72,9.54 50.53,147.77 58.47,293.01 196.4,310.3 159.98,20.05 336.96,-33.76 492.67,13.9l409.53 957.35c204.97,461.04 522.55,-434.01 -342.4,1658.64 -135.16,326.98 -305.56,531.01 48.02,523.17l970.32 -10.4c877.17,-6.75 795.36,96.77 446.43,-784.09l-587.25 -1370.39c-237.86,-583.34 -626.57,-1512.66 -877.02,-2050.15 -100.41,-215.48 -194.07,-454.17 -291.39,-675 -63.53,-144.14 -72.34,-222.2 -196.86,-293.2 -105.54,-60.18 -256.95,-71.08 -404.01,-62.56 -316.6,18.32 -398.45,243.1 -495.36,499.23 -41.29,109.13 -101.82,223.11 -147.25,333.64l-1621.51 3727.76c-93.44,227.88 -313.96,576.94 -160.39,663.33 107.59,34.83 1228.43,27.06 1296.21,-7.95 104.36,-57.26 73.72,-167.46 185.54,-285.72 88.86,-93.97 183.09,-95.94 344.17,-98.42 192.09,-2.95 719.03,8.95 845.93,-38.46 -0.25,-115.12 -173.48,-506.57 -220.94,-626.28 -88.91,-224.27 97.11,-495.36 45.12,-692.62 -57.79,-219.25 -427.54,-153.36 -673.25,-177.75 -155.77,-15.47 -267.54,-234.15 -400.76,-421.78z"/>
   <path class="fil1" d="M7309.61 7119.91l0 -2853.42c0,-347.81 103.81,-625.52 311.43,-833.14 207.62,-207.62 504.85,-311.43 891.7,-311.43 124.21,0 246.65,12.43 367.32,37.27 120.67,24.84 221.82,62.11 303.44,111.79l-250.2 713.36c-42.59,-24.84 -90.5,-45.25 -143.74,-61.22 -53.23,-15.97 -106.47,-23.96 -159.7,-23.96 -106.48,0 -188.99,31.06 -247.55,93.16 -58.56,62.11 -87.84,157.05 -87.84,284.81l0 207.62 26.62 420.56 0 2214.6 -1011.48 0zm-420.56 -2022.95l0 -755.94 2092.16 0 0 755.94 -2092.16 0z"/>
   <path id="_1" class="fil1" d="M9353.86 7119.91l0 -2885.36 963.56 0 0 841.12 -143.74 -239.56c85.18,-216.49 223.59,-378.86 415.24,-487.11 191.65,-108.24 424.11,-162.37 697.39,-162.37l0 910.33c-46.14,-7.1 -86.07,-11.53 -119.78,-13.31 -33.72,-1.77 -70.1,-2.66 -109.14,-2.66 -205.84,0 -372.65,55.9 -500.41,167.69 -127.77,111.8 -191.65,293.68 -191.65,545.67l0 1325.56 -1011.47 0z"/>
   <path id="_2" class="fil1" d="M11712.19 7119.91l-10.64 -2885.36 1011.47 5.32 0 2880.04 -1000.83 0zm495.09 -3204.78c-184.55,0 -333.61,-51.46 -447.17,-154.38 -113.57,-102.92 -170.36,-230.69 -170.36,-383.3 0,-152.6 56.79,-280.37 170.36,-383.29 113.56,-102.92 262.62,-154.38 447.17,-154.38 184.55,0 333.61,48.8 447.18,146.39 113.57,97.6 170.36,222.71 170.36,375.31 0,159.71 -55.9,291.91 -167.7,396.61 -111.79,104.69 -261.74,157.04 -449.84,157.04z"/>
   <path id="_3" class="fil1" d="M14842.44 7167.82c-319.41,0 -604.22,-63.88 -854.43,-191.65 -250.21,-127.76 -446.29,-304.33 -588.25,-529.69 -141.96,-225.36 -212.94,-483.55 -212.94,-774.58 0,-291.02 70.98,-548.32 212.94,-771.91 141.96,-223.59 338.04,-398.38 588.25,-524.37 250.21,-125.99 535.02,-188.99 854.43,-188.99 326.51,0 608.66,69.21 846.44,207.62 237.79,138.41 406.37,333.61 505.74,585.59l-782.56 399.27c-67.43,-134.86 -150.83,-233.35 -250.21,-295.46 -99.37,-62.11 -207.62,-93.16 -324.73,-93.16 -117.12,0 -223.59,26.62 -319.42,79.85 -95.82,53.24 -171.24,130.43 -226.25,231.58 -55.01,101.15 -82.51,224.47 -82.51,369.98 0,149.06 27.5,275.05 82.51,377.98 55.01,102.92 130.43,181 226.25,234.23 95.83,53.24 202.3,79.86 319.42,79.86 117.11,0 225.36,-31.06 324.73,-93.17 99.38,-62.1 182.78,-160.59 250.21,-295.45l782.56 399.26c-99.37,251.98 -267.95,447.18 -505.74,585.59 -237.78,138.42 -519.93,207.62 -846.44,207.62z"/>
   <path id="_4" class="fil1" d="M17626.66 7167.82c-244.89,0 -483.56,-28.39 -716.02,-85.17 -232.46,-56.79 -419.67,-127.77 -561.64,-212.95l303.45 -692.06c134.86,81.63 292.79,146.4 473.79,194.31 181,47.91 358.45,71.87 532.36,71.87 170.35,0 288.36,-17.75 354.01,-53.24 65.66,-35.49 98.49,-83.4 98.49,-143.73 0,-56.79 -31.06,-98.49 -93.16,-125.11 -62.11,-26.61 -143.74,-47.02 -244.89,-61.22 -101.14,-14.19 -212.05,-30.16 -332.72,-47.91 -120.67,-17.74 -242.22,-41.7 -364.66,-71.87 -122.44,-30.16 -234.24,-76.3 -335.39,-138.41 -101.14,-62.11 -181.88,-146.4 -242.22,-252.87 -60.33,-106.47 -90.5,-241.33 -90.5,-404.59 0,-184.55 54.13,-348.69 162.37,-492.43 108.25,-143.73 267.07,-257.3 476.46,-340.7 209.39,-83.4 464.92,-125.11 766.59,-125.11 202.3,0 407.25,20.41 614.87,61.22 207.62,40.82 382.41,102.04 524.37,183.67l-303.44 686.74c-141.96,-81.63 -283.93,-137.53 -425.89,-167.7 -141.96,-30.16 -276.82,-45.25 -404.59,-45.25 -170.35,0 -290.13,19.52 -359.34,58.56 -69.2,39.04 -103.81,86.95 -103.81,143.74 0,56.78 30.17,100.26 90.51,130.43 60.33,30.16 141.07,53.23 242.22,69.2 101.14,15.97 212.05,31.94 332.72,47.91 120.67,15.97 242.22,39.93 364.66,71.87 122.44,31.94 234.24,78.97 335.39,141.08 101.14,62.1 181.88,145.51 242.22,250.2 60.33,104.7 90.5,238.67 90.5,401.93 0,177.45 -54.13,337.16 -162.37,479.12 -108.25,141.96 -267.95,255.53 -479.12,340.71 -211.17,85.17 -472.91,127.76 -785.22,127.76z"/>
   <path class="fil2" d="M11760.12 3760.75c113.56,102.93 262.62,154.39 447.17,154.39 188.11,0 338.05,-52.36 449.85,-157.05 111.78,-104.69 167.69,-236.9 167.69,-396.61 0,-152.6 -56.79,-277.71 -170.36,-375.31 -113.56,-97.59 -262.62,-146.4 -447.18,-146.4 -184.55,0 -333.61,51.46 -447.17,154.38 -113.57,102.93 -170.36,230.7 -170.36,383.3 0,152.61 56.79,280.38 170.36,383.3z"/>
  </g>
 </g>
</svg>
